<svg width="32" height="32" viewBox="0 0 32 32" fill="none" xmlns="http://www.w3.org/2000/svg">
<path d="M19.4709 7.79345C19.1817 8.08852 19.0197 8.48524 19.0197 8.89843C19.0197 9.31161 19.1817 9.70833 19.4709 10.0034L21.9966 12.5291C22.2917 12.8183 22.6884 12.9803 23.1016 12.9803C23.5148 12.9803 23.9115 12.8183 24.2066 12.5291L30.1576 6.57798C30.9514 8.33203 31.1917 10.2863 30.8466 12.1804C30.5015 14.0745 29.5873 15.8185 28.2259 17.1799C26.8646 18.5412 25.1206 19.4554 23.2265 19.8005C21.3324 20.1456 19.3781 19.9053 17.6241 19.1115L6.71638 30.0192C6.0884 30.6472 5.23668 31 4.34858 31C3.46048 31 2.60876 30.6472 1.98078 30.0192C1.3528 29.3912 1 28.5395 1 27.6514C1 26.7633 1.3528 25.9116 1.98078 25.2836L12.8885 14.3759C12.0947 12.6219 11.8544 10.6676 12.1995 8.77349C12.5446 6.87939 13.4588 5.13544 14.8201 3.77406C16.1815 2.41268 17.9255 1.49852 19.8196 1.15341C21.7137 0.808299 23.668 1.04863 25.422 1.84237L19.4867 7.77767L19.4709 7.79345Z" stroke="white" stroke-width="2" stroke-linecap="round" stroke-linejoin="round"/>
</svg>
